<?xml version="1.0" encoding="UTF-8"?>
<!-- Generator: Adobe Illustrator 23.0.0, SVG Export Plug-In . SVG Version: 6.00 Build 0)  -->
<svg version="1.1" xmlns:cc="http://creativecommons.org/ns#" xmlns:dc="http://purl.org/dc/elements/1.1/" xmlns:inkscape="http://www.inkscape.org/namespaces/inkscape" xmlns:rdf="http://www.w3.org/1999/02/22-rdf-syntax-ns#" xmlns:sodipodi="http://sodipodi.sourceforge.net/DTD/sodipodi-0.dtd" xmlns:svg="http://www.w3.org/2000/svg" xmlns="http://www.w3.org/2000/svg" xmlns:xlink="http://www.w3.org/1999/xlink" x="0px" y="0px" viewBox="0 0 64 64" style="enable-background:new 0 0 64 64;" xml:space="preserve">
<style type="text/css">
	.st0{fill:#4F5D73;}
	.st1{fill-rule:evenodd;clip-rule:evenodd;fill:#414D5F;}
	.st2{fill-rule:evenodd;clip-rule:evenodd;fill:#FFFFFF;}
	.st3{fill:#414D5F;}
	.st4{fill-rule:evenodd;clip-rule:evenodd;fill:#F5CF87;}
	.st5{fill:#C75C5C;}
</style>
<circle class="st0" cx="32" cy="32" r="32"/>
<path class="st1" d="  M6.6,32.1C7,37.5,7.4,43,7.9,47.1c0.3,2.1,0.5,3.8,0.8,5c0.1,0.6,0.3,1.1,0.4,1.5c0.1,0.2,0.2,0.4,0.3,0.6c0.2,0.2,0.5,0.5,1.1,0.5  c0.5,0,0.9-0.3,1.1-0.5c0.2-0.2,0.3-0.4,0.3-0.5c0.2-0.4,0.3-0.8,0.4-1.3c0.2-1,0.4-2.5,0.5-4.2c0.3-3.4,0.5-8,0.8-12.5  c0.2-4.5,0.5-9.1,0.8-12.5c0.1-1.2,0.3-1.9,0.4-2.7c0.1,0.6,0.2,1,0.3,1.8c0.3,2.8,0.6,6.6,0.8,10.3c0.2,3.8,0.4,7.5,0.8,10.4  c0.2,1.4,0.3,2.6,0.6,3.5c0.1,0.4,0.2,0.8,0.4,1.2c0.1,0.2,0.2,0.3,0.4,0.5c0.2,0.2,0.6,0.4,1,0.4c0.7,0,1.1-0.4,1.3-0.7  s0.3-0.6,0.5-1c0.2-0.8,0.4-1.8,0.6-2.9c0.3-2.4,0.6-5.5,0.9-8.6c0.3-3.1,0.5-6.2,0.8-8.5c0.1-0.5,0.2-0.8,0.2-1.2  c0.1,0.3,0.1,0.4,0.2,0.7c0.3,1.9,0.6,4.4,0.9,6.9c0.3,2.5,0.6,5.1,0.9,7c0.2,1,0.3,1.8,0.6,2.4c0.1,0.3,0.2,0.6,0.4,0.9  s0.6,0.7,1.3,0.7c0.6,0,1-0.3,1.2-0.5c0.2-0.2,0.3-0.5,0.5-0.8c0.2-0.6,0.4-1.2,0.6-2c0.4-1.6,0.7-3.7,1-5.8s0.6-4.2,1-5.7  c0.1-0.3,0.1-0.5,0.2-0.7c0,0.1,0,0.1,0.1,0.2c0.3,1.2,0.5,2.9,0.8,4.6s0.5,3.4,0.9,4.7c0.2,0.7,0.4,1.2,0.6,1.7  c0.1,0.2,0.3,0.5,0.5,0.7c0.3,0.2,0.7,0.4,1.1,0.4c0.8,0,1.3-0.5,1.6-0.9c0.3-0.4,0.5-0.9,0.6-1.5c0.3-1.1,0.6-2.5,0.8-3.9  c0.3-1.4,0.5-2.7,0.8-3.7c0.1-0.4,0.3-0.6,0.4-0.8c0.1,0.1,0.2,0.3,0.3,0.6c0.3,0.7,0.6,1.8,0.9,2.9c0.3,1.1,0.5,2.2,0.9,3.1  c0.2,0.4,0.3,0.8,0.6,1.2c0.3,0.4,0.7,0.8,1.5,0.8c0.6,0,1.1-0.3,1.4-0.6c0.3-0.3,0.5-0.6,0.7-1c0.4-0.7,0.7-1.6,1-2.5  c0.3-0.9,0.6-1.7,0.9-2.3c0.1-0.1,0.1-0.2,0.2-0.3c0,0.1,0.1,0.1,0.1,0.1c0.3,0.4,0.5,1.1,0.8,1.8c0.3,0.7,0.6,1.4,1,2  c0.2,0.3,0.4,0.6,0.8,0.9c0.3,0.3,0.8,0.5,1.4,0.5c1,0,1.7-0.6,2.1-1.1c0.4-0.5,0.7-1.1,1-1.7c0.3-0.5,0.6-1.1,0.8-1.4  c0.2-0.3,0.3-0.3,0.3-0.3c0.1,0,0.2,0,0.4,0.3c0.3,0.2,0.6,0.6,0.9,1.1c0.3,0.4,0.7,0.9,1.1,1.4c0.5,0.4,1.2,0.9,2.1,0.9  c2.4-1.2,2.8-3.2,1.3-2.8c-0.3,0.3-0.5,0.6-0.8,0.8c-0.2,0.2-0.3,0.2-0.5,0.2c-0.1,0-0.2,0-0.5-0.3c-0.3-0.2-0.6-0.6-0.9-1.1  c-0.3-0.4-0.7-0.9-1.1-1.4c-0.5-0.4-1.2-0.9-2-0.9c-1,0-1.7,0.6-2.1,1.1c-0.4,0.5-0.7,1.1-1,1.7c-0.3,0.5-0.6,1.1-0.8,1.4  C53,35.4,53,35.4,53,35.4c-0.1-0.1-0.2-0.2-0.3-0.3c-0.3-0.4-0.6-1.1-0.8-1.7s-0.6-1.4-0.9-2c-0.2-0.3-0.4-0.6-0.7-0.9  c-0.3-0.3-0.8-0.5-1.3-0.5c-0.6,0-1.1,0.3-1.4,0.6c-0.3,0.3-0.5,0.6-0.7,1c-0.4,0.7-0.7,1.6-1,2.5s-0.6,1.7-0.9,2.3c0,0,0,0-0.1,0.1  c0-0.1-0.1-0.1-0.1-0.3c-0.3-0.8-0.5-1.8-0.8-2.9c-0.3-1.1-0.6-2.2-1-3.2c-0.2-0.5-0.4-0.9-0.8-1.2c-0.4-0.4-0.9-0.7-1.6-0.7  c-0.8,0-1.4,0.5-1.7,0.9s-0.5,0.9-0.7,1.5c-0.4,1.1-0.6,2.5-0.9,3.9S36.6,37,36.3,38c-0.1,0.2-0.1,0.2-0.1,0.4  c-0.1-0.2-0.2-0.4-0.3-0.7c-0.3-1.2-0.6-2.9-0.8-4.5c-0.3-1.7-0.5-3.4-0.8-4.7c-0.2-0.7-0.3-1.2-0.6-1.7c-0.1-0.2-0.3-0.5-0.5-0.7  s-0.6-0.4-1.1-0.4c-0.6,0-1,0.3-1.2,0.5c-0.2,0.2-0.3,0.5-0.5,0.8c-0.2,0.6-0.4,1.2-0.6,2c-0.4,1.6-0.7,3.7-1,5.8s-0.6,4.2-1,5.7  c0,0.1-0.1,0.2-0.1,0.3c-0.1-0.3-0.1-0.5-0.2-0.8c-0.3-1.9-0.6-4.4-0.9-6.9S26,28,25.7,26c-0.2-1-0.4-1.8-0.6-2.5  c-0.1-0.3-0.3-0.6-0.5-0.9S24,22.1,23.4,22c-0.4,0-0.7,0.1-1,0.3s-0.3,0.3-0.4,0.5c-0.2,0.3-0.3,0.6-0.4,1c-0.2,0.7-0.4,1.7-0.6,2.9  c-0.3,2.3-0.6,5.4-0.8,8.5c-0.3,3.1-0.5,6.2-0.8,8.5c-0.1,0.4-0.1,0.6-0.2,1c-0.1-0.6-0.2-1-0.3-1.8c-0.3-2.8-0.5-6.6-0.8-10.3  c-0.2-3.8-0.5-7.6-0.8-10.4c-0.2-1.4-0.4-2.6-0.6-3.5c-0.1-0.5-0.3-0.8-0.5-1.2c-0.1-0.2-0.2-0.3-0.4-0.5c-0.2-0.2-0.6-0.3-1-0.3  c-0.5,0-0.8,0.2-1,0.4c-0.2,0.2-0.3,0.4-0.4,0.6c-0.2,0.4-0.3,0.8-0.5,1.3c-0.3,1.1-0.5,2.5-0.6,4.2c-0.4,3.4-0.6,8-0.8,12.5  c-0.2,4.5-0.5,9.1-0.8,12.5c-0.1,0.7-0.1,1-0.2,1.6c-0.1-0.9-0.3-1.6-0.4-2.7c-0.5-4.1-1-9.5-1.4-14.9C7.2,1.1,5,10.6,6.6,32.1z"/>
<path class="st2" d="  M6.6,30.5C7,36,7.5,41.4,8,45.5c0.2,2.1,0.5,3.8,0.8,5C8.9,51.1,9,51.6,9.2,52c0.1,0.2,0.2,0.4,0.3,0.6s0.5,0.5,1.1,0.5  c0.5,0,0.9-0.3,1-0.5s0.2-0.4,0.3-0.5c0.2-0.4,0.3-0.8,0.4-1.3c0.2-1,0.4-2.5,0.5-4.2c0.3-3.4,0.5-8,0.8-12.5  c0.2-4.5,0.5-9.1,0.8-12.5c0.1-1.2,0.3-1.9,0.4-2.7c0.1,0.6,0.2,1,0.3,1.8c0.3,2.8,0.6,6.6,0.8,10.3c0.2,3.8,0.4,7.5,0.7,10.4  c0.2,1.4,0.3,2.6,0.5,3.5c0.1,0.4,0.2,0.8,0.4,1.2c0.1,0.2,0.2,0.3,0.4,0.5c0.2,0.2,0.5,0.4,1,0.4c0.7,0,1.1-0.4,1.3-0.7  c0.2-0.3,0.3-0.6,0.5-1c0.2-0.8,0.4-1.8,0.6-2.9c0.3-2.4,0.6-5.5,0.8-8.6c0.3-3.1,0.5-6.2,0.8-8.5c0.1-0.5,0.2-0.8,0.2-1.2  c0.1,0.3,0.1,0.4,0.2,0.7c0.3,1.9,0.6,4.4,0.9,6.9c0.3,2.5,0.5,5.1,0.9,7c0.2,1,0.3,1.8,0.6,2.4c0.1,0.3,0.2,0.6,0.4,0.9  s0.6,0.7,1.2,0.7c0.6,0,1-0.3,1.2-0.5c0.2-0.2,0.3-0.5,0.5-0.8c0.2-0.6,0.4-1.2,0.6-2c0.4-1.6,0.7-3.7,1-5.8s0.6-4.2,1-5.7  c0.1-0.3,0.1-0.5,0.2-0.7c0,0.1,0,0.1,0.1,0.2c0.3,1.2,0.5,2.9,0.8,4.6c0.2,1.7,0.5,3.4,0.8,4.7c0.2,0.7,0.4,1.2,0.6,1.7  c0.1,0.2,0.3,0.5,0.5,0.7c0.2,0.2,0.7,0.4,1.1,0.4c0.8,0,1.3-0.5,1.6-0.9c0.3-0.4,0.5-0.9,0.6-1.5c0.3-1.1,0.6-2.5,0.8-3.9  c0.2-1.4,0.5-2.7,0.8-3.7c0.1-0.4,0.3-0.6,0.4-0.8c0.1,0.1,0.2,0.3,0.3,0.6c0.3,0.7,0.6,1.8,0.9,2.9c0.3,1.1,0.5,2.2,0.8,3.1  c0.2,0.4,0.3,0.8,0.6,1.2s0.7,0.8,1.5,0.8c0.6,0,1.1-0.3,1.4-0.6s0.5-0.6,0.7-1c0.4-0.7,0.7-1.6,1-2.5c0.3-0.9,0.6-1.7,0.9-2.3  c0.1-0.1,0.1-0.2,0.2-0.3c0,0.1,0.1,0.1,0.1,0.1c0.2,0.4,0.5,1.1,0.8,1.8c0.3,0.7,0.6,1.4,1,2c0.2,0.3,0.4,0.6,0.8,0.9  s0.8,0.5,1.3,0.5c1,0,1.6-0.6,2-1.1s0.7-1.1,1-1.7c0.3-0.5,0.6-1.1,0.8-1.4c0.2-0.3,0.3-0.3,0.3-0.3c0.1,0,0.2,0,0.4,0.3  s0.5,0.6,0.9,1.1s0.6,0.9,1.1,1.4s1.2,0.9,2,0.9c2.3-1.2,2.8-3.2,1.3-2.8c-0.3,0.3-0.5,0.6-0.7,0.8s-0.3,0.2-0.5,0.2  c-0.1,0-0.2,0-0.4-0.3c-0.2-0.2-0.5-0.6-0.9-1.1c-0.3-0.4-0.6-0.9-1.1-1.4c-0.5-0.4-1.1-0.9-2-0.9c-1,0-1.6,0.6-2.1,1.1  s-0.7,1.1-1,1.7c-0.3,0.5-0.6,1.1-0.8,1.4c-0.2,0.3-0.2,0.2-0.2,0.2c-0.1-0.1-0.2-0.2-0.3-0.3c-0.3-0.4-0.5-1.1-0.8-1.7  c-0.3-0.7-0.5-1.4-0.9-2c-0.2-0.3-0.4-0.6-0.7-0.9c-0.3-0.3-0.8-0.5-1.3-0.5c-0.6,0-1.1,0.3-1.4,0.6c-0.3,0.3-0.5,0.6-0.7,1  c-0.4,0.7-0.7,1.6-1,2.5s-0.6,1.7-0.9,2.3c0,0,0,0-0.1,0.1c0-0.1-0.1-0.1-0.1-0.3c-0.3-0.8-0.5-1.8-0.8-2.9s-0.6-2.2-1-3.2  c-0.2-0.5-0.4-0.9-0.8-1.2c-0.3-0.4-0.9-0.7-1.6-0.7c-0.8,0-1.3,0.5-1.7,0.9s-0.5,0.9-0.7,1.5c-0.4,1.1-0.6,2.5-0.9,3.9  c-0.2,1.4-0.5,2.7-0.8,3.7c0,0.2-0.1,0.2-0.1,0.4c-0.1-0.2-0.2-0.4-0.2-0.7c-0.3-1.2-0.6-2.9-0.8-4.5c-0.2-1.7-0.5-3.4-0.8-4.7  c-0.2-0.7-0.3-1.2-0.6-1.7c-0.1-0.2-0.3-0.5-0.5-0.7c-0.2-0.2-0.6-0.4-1.1-0.4c-0.6,0-1,0.3-1.2,0.5c-0.2,0.2-0.3,0.5-0.5,0.8  c-0.2,0.6-0.4,1.2-0.6,2c-0.4,1.6-0.7,3.7-1,5.8s-0.6,4.2-1,5.7c0,0.1-0.1,0.2-0.1,0.3c-0.1-0.3-0.1-0.5-0.2-0.8  c-0.3-1.9-0.6-4.4-0.9-6.9c-0.3-2.5-0.6-5.1-0.9-7c-0.2-1-0.4-1.8-0.6-2.5c-0.1-0.3-0.2-0.6-0.4-0.9s-0.6-0.6-1.2-0.7  c-0.4,0-0.7,0.1-0.9,0.3c-0.2,0.1-0.3,0.3-0.4,0.5c-0.2,0.3-0.3,0.6-0.4,1c-0.2,0.7-0.4,1.7-0.6,2.9c-0.3,2.3-0.6,5.4-0.8,8.5  c-0.3,3.1-0.5,6.2-0.8,8.5c-0.1,0.4-0.1,0.6-0.2,1c-0.1-0.6-0.2-1-0.3-1.8c-0.3-2.8-0.5-6.6-0.7-10.3c-0.2-3.8-0.5-7.6-0.8-10.4  c-0.2-1.4-0.4-2.6-0.6-3.5c-0.1-0.5-0.3-0.8-0.5-1.2c-0.1-0.2-0.2-0.3-0.4-0.5c-0.2-0.2-0.6-0.3-0.9-0.3c-0.5,0-0.8,0.2-1,0.4  s-0.3,0.4-0.4,0.6c-0.2,0.4-0.3,0.8-0.4,1.3c-0.2,1.1-0.4,2.5-0.6,4.2c-0.3,3.4-0.6,8-0.8,12.5c-0.2,4.5-0.5,9.1-0.7,12.5  c-0.1,0.7-0.1,1-0.2,1.6c-0.1-0.9-0.3-1.6-0.4-2.7c-0.5-4.1-0.9-9.5-1.3-14.9C7.2-0.5,5.1,9.1,6.6,30.5z"/>
<g transform="translate(-1.8895196,3.294927)">
	<path class="st1" d="M52.1,12.6c-0.3,0-0.5,0.2-0.6,0.4L28.3,50.2   c-0.6,0.9,1.1,2.1,1.6,1.1l23.2-37.7C53.4,13.1,52.7,12.6,52.1,12.6z"/>
	<path class="st1" d="M53.8,10.4c-0.1,0-0.2,0-0.3,0.1l-8.6,6.7   c-0.3,0.3-0.1,0.8,0.3,0.8c2.6-0.2,5,1.3,6,3.7c0.2,0.4,0.8,0.4,0.8-0.1l2.2-10.7C54.3,10.7,54.1,10.4,53.8,10.4z"/>
</g>
<circle class="st3" cx="39.2" cy="33.9" r="8.7"/>
<g transform="translate(-1.8895196,1.7309734)">
	<path class="st4" d="M52.1,12.6c-0.3,0-0.5,0.2-0.6,0.4L28.3,50.2   c-0.8,1.2,0.7,2.6,1.6,1.1l23.2-37.7C53.4,13.1,52.7,12.6,52.1,12.6z"/>
	<path class="st4" d="M53.8,10.4c-0.1,0-0.2,0-0.3,0.1l-8.6,6.7   c-0.3,0.3-0.1,0.8,0.3,0.8c2.6-0.2,5,1.3,6,3.7c0.2,0.4,0.8,0.4,0.8-0.1l2.2-10.7C54.3,10.7,54.1,10.4,53.8,10.4z"/>
</g>
<circle class="st5" cx="39.2" cy="32" r="8.7"/>
</svg>