<?xml version="1.0" encoding="UTF-8"?>
<!-- Generator: Adobe Illustrator 22.0.1, SVG Export Plug-In . SVG Version: 6.00 Build 0)  -->
<svg version="1.1" id="Calque_1" xmlns="http://www.w3.org/2000/svg" xmlns:xlink="http://www.w3.org/1999/xlink" x="0px" y="0px" viewBox="0 0 500 500" style="enable-background:new 0 0 500 500;" xml:space="preserve">
<style type="text/css">
	.st0{fill:#B65534;}
	.st1{fill:#666666;}
	.st2{fill:#808080;}
</style>
<path class="st0" d="M250,500L250,500C111.9,500,0,388.1,0,250v0C0,111.9,111.9,0,250,0h0c138.1,0,250,111.9,250,250v0  C500,388.1,388.1,500,250,500z"/>
<g>
	<g>
		<path class="st1" d="M407.5,380v-36.7c0-15.2-12.3-27.5-27.4-27.5h-36.5c-15.1,0-27.4-12.3-27.4-27.5v-36.7    c0-15.2,12.3-27.5,27.4-27.5h35.1c15.1,0,27.4-12.3,27.4-27.5V160c0-15.2-12.3-27.5-27.4-27.5H159.9c-15.1,0-27.4,12.3-27.4,27.5    v36.7c0,15.2,12.3,27.5,27.4,27.5h37.9c15.1,0,27.4,12.3,27.4,27.5v36.7c0,15.2-12.3,27.5-27.4,27.5h-36.5    c-15.1,0-27.4,12.3-27.4,27.5V380c0,15.2,12.3,27.5,27.4,27.5h218.9C395.2,407.5,407.5,395.2,407.5,380z"/>
	</g>
	<g>
		<path class="st2" d="M367.5,340v-36.7c0-15.2-12.3-27.5-27.4-27.5h-36.5c-15.1,0-27.4-12.3-27.4-27.5v-36.7    c0-15.2,12.3-27.5,27.4-27.5h35.1c15.1,0,27.4-12.3,27.4-27.5V120c0-15.2-12.3-27.5-27.4-27.5H119.9c-15.1,0-27.4,12.3-27.4,27.5    v36.7c0,15.2,12.3,27.5,27.4,27.5h37.9c15.1,0,27.4,12.3,27.4,27.5v36.7c0,15.2-12.3,27.5-27.4,27.5h-36.5    c-15.1,0-27.4,12.3-27.4,27.5V340c0,15.2,12.3,27.5,27.4,27.5h218.9C355.2,367.5,367.5,355.2,367.5,340z"/>
	</g>
</g>
</svg>