<?xml version="1.0" encoding="UTF-8" standalone="no"?>
<!-- Generator: Adobe Illustrator 19.1.0, SVG Export Plug-In . SVG Version: 6.00 Build 0)  -->
<svg xmlns:dc="http://purl.org/dc/elements/1.1/" xmlns:cc="http://creativecommons.org/ns#" xmlns:rdf="http://www.w3.org/1999/02/22-rdf-syntax-ns#" xmlns:svg="http://www.w3.org/2000/svg" xmlns="http://www.w3.org/2000/svg" xmlns:sodipodi="http://sodipodi.sourceforge.net/DTD/sodipodi-0.dtd" xmlns:inkscape="http://www.inkscape.org/namespaces/inkscape" version="1.1" x="0px" y="0px" viewBox="0 0 64 64" style="enable-background:new 0 0 64 64;" xml:space="preserve" id="svg2" inkscape:version="0.91 r13725" sodipodi:docname="Circle-icons-locked.svg"><metadata id="metadata40"><rdf:RDF><cc:Work rdf:about=""><dc:format>image/svg+xml</dc:format><dc:type rdf:resource="http://purl.org/dc/dcmitype/StillImage"/></cc:Work></rdf:RDF></metadata><defs id="defs38"/><sodipodi:namedview pagecolor="#ffffff" bordercolor="#666666" borderopacity="1" objecttolerance="10" gridtolerance="10" guidetolerance="10" inkscape:pageopacity="0" inkscape:pageshadow="2" inkscape:window-width="1920" inkscape:window-height="1017" id="namedview36" showgrid="false" inkscape:zoom="3.6875" inkscape:cx="32" inkscape:cy="32" inkscape:window-x="-8" inkscape:window-y="-8" inkscape:window-maximized="1" inkscape:current-layer="Layer_1"/><style type="text/css" id="style4">
	.st0{fill:#E0995E;}
	.st1{opacity:0.2;}
	.st2{fill:#231F20;}
	.st3{fill:#4F5D73;}
	.st4{fill:#FFFFFF;}
</style><g id="Layer_1"><g id="g7" style="fill:#56b2b7;fill-opacity:1"><circle class="st0" cx="32" cy="32" r="32" id="circle9" style="fill:#56b2b7;fill-opacity:1"/></g><g class="st1" id="g11"><g id="g13"><path class="st2" d="M45.5,33.2h-5v-7.3c0-4.7-3.8-8.5-8.5-8.5s-8.5,3.8-8.5,8.5v7.3h-5v-7.3c0-7.4,6.1-13.5,13.5-13.5     s13.5,6.1,13.5,13.5V33.2z" id="path15"/></g></g><g id="g17"><path class="st3" d="M45.5,31.2h-5v-7.3c0-4.7-3.8-8.5-8.5-8.5s-8.5,3.8-8.5,8.5v7.3h-5v-7.3c0-7.4,6.1-13.5,13.5-13.5    s13.5,6.1,13.5,13.5V31.2z" id="path19"/></g><g id="g21"><g id="g23"><path class="st3" d="M32,32c-2.2,0-4,1.8-4,4c0,1.5,0.8,2.8,2,3.4V42c0,1.1,0.9,2,2,2s2-0.9,2-2v-2.6c1.2-0.7,2-2,2-3.4     C36,33.8,34.2,32,32,32z" id="path25"/></g></g><g class="st1" id="g27"><path class="st2" d="M47,27H17c-1.7,0-3,1.3-3,3v19c0,1.7,1.3,3,3,3h30c1.7,0,3-1.3,3-3V30C50,28.3,48.7,27,47,27z M34,41.4V44    c0,1.1-0.9,2-2,2s-2-0.9-2-2v-2.6c-1.2-0.7-2-2-2-3.4c0-2.2,1.8-4,4-4s4,1.8,4,4C36,39.5,35.2,40.8,34,41.4z" id="path29"/></g><g id="g31"><path class="st4" d="M47,25H17c-1.7,0-3,1.3-3,3v19c0,1.7,1.3,3,3,3h30c1.7,0,3-1.3,3-3V28C50,26.3,48.7,25,47,25z M34,39.4V42    c0,1.1-0.9,2-2,2s-2-0.9-2-2v-2.6c-1.2-0.7-2-2-2-3.4c0-2.2,1.8-4,4-4s4,1.8,4,4C36,37.5,35.2,38.8,34,39.4z" id="path33"/></g></g><g id="Layer_2"/></svg>