<?xml version="1.0" encoding="UTF-8"?>
<!-- Generator: Adobe Illustrator 16.0.0, SVG Export Plug-In . SVG Version: 6.00 Build 0)  -->
<!DOCTYPE svg PUBLIC "-//W3C//DTD SVG 1.1//EN" "http://www.w3.org/Graphics/SVG/1.1/DTD/svg11.dtd">
<svg version="1.1" id="Layer_1" xmlns:x="http://ns.adobe.com/Extensibility/1.0/" xmlns:i="http://ns.adobe.com/AdobeIllustrator/10.0/" xmlns:graph="http://ns.adobe.com/Graphs/1.0/" xmlns="http://www.w3.org/2000/svg" xmlns:xlink="http://www.w3.org/1999/xlink" x="0px" y="0px" width="132px" height="132px" viewBox="94 0 132 132" enable-background="new 94 0 132 132" xml:space="preserve">
<metadata>
	<sfw xmlns="http://ns.adobe.com/SaveForWeb/1.0/">
		<slices/>
		<sliceSourceBounds width="132" height="132" y="0.5" x="93.5" bottomLeftOrigin="true"/>
	</sfw>
</metadata>
<circle fill="#DDDDFF" cx="160" cy="66" r="66"/>
<path opacity="0.2" fill="#231F20" enable-background="new    " d="M144.737,86.419c0.825,2.269-0.412,4.125-2.887,4.125h-4.125  c-2.269,0-4.744-1.856-5.363-4.125l-6.6-20.625c-0.825-2.269,0.412-4.125,2.887-4.125h4.125c2.269,0,4.744,1.856,5.363,4.125  L144.737,86.419z"/>
<path opacity="0.2" fill="#231F20" enable-background="new    " d="M143.5,96.731c0.825,2.269-0.413,4.125-2.888,4.125h-4.125  c-2.269,0-4.125-0.206-4.95-2.476l-7.219-22.274c-0.825-2.269,0.413-4.125,2.887-4.125h4.125c2.269,0,4.744,1.856,5.363,4.125  L143.5,96.731z"/>
<path fill="#0B0080" d="M144.737,82.294c0.825,2.269-0.412,4.125-2.887,4.125h-4.125c-2.269,0-4.744-1.856-5.363-4.125l-6.6-20.625  c-0.825-2.269,0.412-4.125,2.887-4.125h4.125c2.269,0,4.744,1.856,5.363,4.125L144.737,82.294z"/>
<path fill="#4F5D73" d="M143.5,92.606c0.825,2.269-0.413,4.125-2.888,4.125h-4.125c-2.269,0-4.537-1.031-5.362-3.3l-6.806-21.45  c-0.825-2.269,0.413-4.125,2.887-4.125h4.125c2.269,0,4.744,1.856,5.363,4.125L143.5,92.606z"/>
<path opacity="0.2" fill="#231F20" enable-background="new    " d="M193,59.606v-21.45c0-1.65-1.443-3.094-3.094-3.094  s-3.094,1.444-3.094,3.094v2.063c-5.775,5.156-12.994,13.2-33,13.2h-22.688H127h-4.125c-2.269,0-4.125,1.856-4.125,4.125  c-2.269,0-4.125,1.856-4.125,4.125v12.375c0,2.269,1.856,4.125,4.125,4.125c0,2.269,1.856,4.125,4.125,4.125h2.063H127h4.125h22.688  c20.006,0,27.225,8.044,33,13.2v2.269c0,1.649,1.443,3.094,3.094,3.094S193,99.412,193,97.763V76.106  c2.269,0,4.125-1.856,4.125-4.125v-8.25C197.125,61.462,195.269,59.606,193,59.606z"/>
<path fill="#0645AD" d="M197.125,67.856c0,2.269-1.856,4.125-4.125,4.125h-16.5c-2.269,0-4.125-1.856-4.125-4.125v-8.25  c0-2.269,1.856-4.125,4.125-4.125H193c2.269,0,4.125,1.856,4.125,4.125V67.856z"/>
<path fill="#4F5D73" d="M139.375,69.919c0,2.269-1.856,4.125-4.125,4.125h-16.5c-2.269,0-4.125-1.856-4.125-4.125V57.544  c0-2.269,1.856-4.125,4.125-4.125h16.5c2.269,0,4.125,1.856,4.125,4.125V69.919z"/>
<path fill="#FFFFFF" d="M189.081,34.237c-6.188,4.744-12.581,15.057-35.269,15.057H127l-2.063,28.875h28.875  c22.688,0,29.081,10.313,35.269,15.056V34.237z"/>
<path fill="#0B0080" d="M131.125,78.169c0,0-1.856,0-4.125,0h-4.125c-2.269,0-4.125-1.856-4.125-4.125V53.419  c0-2.269,1.856-4.125,4.125-4.125H127c2.269,0,4.125,0,4.125,0V78.169z"/>
<path fill="#4F5D73" d="M193,93.638c0,1.649-1.443,3.094-3.094,3.094l0,0c-1.65,0-3.094-1.444-3.094-3.094V34.031  c0-1.65,1.443-3.094,3.094-3.094l0,0c1.65,0,3.094,1.444,3.094,3.094V93.638z"/>
</svg>