<?xml version="1.0" encoding="UTF-8"?>
<!DOCTYPE svg PUBLIC "-//W3C//DTD SVG 1.1//EN" "http://www.w3.org/Graphics/SVG/1.1/DTD/svg11.dtd">
<!-- Generator: Adobe Illustrator 22.1.0, SVG Export Plug-In . SVG Version: 6.00 Build 0) -->
<svg version="1.1" id="svg4536" xmlns:cc="http://creativecommons.org/ns#" xmlns:dc="http://purl.org/dc/elements/1.1/" xmlns:inkscape="http://www.inkscape.org/namespaces/inkscape" xmlns:rdf="http://www.w3.org/1999/02/22-rdf-syntax-ns#" xmlns:sodipodi="http://sodipodi.sourceforge.net/DTD/sodipodi-0.dtd" xmlns:svg="http://www.w3.org/2000/svg" xmlns="http://www.w3.org/2000/svg" xmlns:xlink="http://www.w3.org/1999/xlink" x="0px" y="0px" viewBox="0 0 512 512" style="enable-background:new 0 0 512 512;" xml:space="preserve">
<style type="text/css">
	.st0{fill:#F5CF87;}
	.st1{fill-opacity:0.2745;}
	.st2{fill:#C75C5C;}
	.st3{fill:none;stroke:#FFFFFF;stroke-width:15;stroke-linecap:round;stroke-linejoin:round;}
	.st4{fill:none;stroke:#FFFFFF;stroke-width:11.4069;stroke-linecap:round;stroke-linejoin:round;}
	.st5{fill:#4F5D73;}
</style>
<circle id="circle4504-5" class="st0" cx="256.1" cy="255.8" r="255.6"/>
<g id="Calque_2">
	<circle id="path4485-7-4-5-5-7" class="st1" cx="316.5" cy="310.7" r="45.3"/>
	<circle id="path4485-7-4-5-5" class="st2" cx="315.9" cy="292.4" r="45.3"/>
	
		<ellipse id="path4485-7-0-9-9" transform="matrix(6.477217e-02 -0.9979 0.9979 6.477217e-02 -188.5291 419.3723)" class="st1" cx="129.5" cy="310.3" rx="45.3" ry="45.3"/>
	<circle id="path4485-7-0-9" class="st2" cx="128.9" cy="292" r="45.3"/>
	
		<ellipse id="path4485-7-8-0" transform="matrix(1 -6.130965e-03 6.130965e-03 1 -2.4732 1.202)" class="st1" cx="194.8" cy="404" rx="45.3" ry="45.3"/>
	<path id="path4627-6-3-3" class="st3" d="M144.3,326.9l50,64.1"/>
	<circle id="path4485-7-4-0-0" class="st1" cx="387.6" cy="404" r="45.3"/>
	
		<ellipse id="path4485-7-8" transform="matrix(1 -6.130911e-03 6.130911e-03 1 -2.3609 1.1982)" class="st2" cx="194.3" cy="385.7" rx="45.3" ry="45.3"/>
	<path id="path4627-6-3" class="st4" d="M337.4,324.6l50,64.1"/>
	<circle id="path4485-7-4-0" class="st2" cx="387" cy="385.7" r="45.3"/>
	<path id="path4627-4-9-07" class="st3" d="M385.6,245l2.3,98.3"/>
	
		<ellipse id="path4485-7-4-0-9-9" transform="matrix(1 -6.130931e-03 6.130931e-03 1 -1.3419 2.3528)" class="st1" cx="383.1" cy="220" rx="45.3" ry="45.3"/>
	<path id="path4627-4-9-0-2" class="st3" d="M316.6,151.5l2.3,98.3"/>
	<path id="path4627-4-9-0-0-7" class="st3" d="M125.4,148.8l2.3,98.3"/>
	<circle id="path4485-7-0-9-0-9" class="st1" cx="125" cy="126.3" r="45.3"/>
	<path id="path4627-4-9-0-8-0" class="st3" d="M236.3,390.9l111-0.6"/>
	<path id="path4627-4-9-0-8-0-8" class="st4" d="M169.3,295.2l106.1,0.6"/>
	<circle id="path4485-7-4-4-2-6" class="st1" cx="251.1" cy="265.3" r="29"/>
	<circle id="path4485-7-4-4-2" class="st5" cx="250.8" cy="255" r="29"/>
	<path id="path4627-4-6" class="st3" d="M192.4,245.5l2.3,98.3"/>
	<circle id="path4485-7-8-1-5" class="st1" cx="190.3" cy="220" r="45.3"/>
	
		<ellipse id="path4485-7-4-5-5-4-8" transform="matrix(1 -6.130951e-03 6.130951e-03 1 -0.7711 1.915)" class="st1" cx="312" cy="126.7" rx="45.3" ry="45.3"/>
	
		<ellipse id="path4485-7-4-5-5-4" transform="matrix(1 -6.130951e-03 6.130951e-03 1 -0.6588 1.9112)" class="st2" cx="311.4" cy="108.4" rx="45.3" ry="45.3"/>
	<circle id="path4485-7-0-9-0" class="st2" cx="124.4" cy="108" r="45.3"/>
	<path id="path4627-6-3-3-7" class="st3" d="M139.8,142.9l50,64.1"/>
	
		<ellipse id="path4485-7-8-1" transform="matrix(1 -6.130938e-03 6.130938e-03 1 -1.2332 1.1672)" class="st2" cx="189.8" cy="201.7" rx="45.3" ry="45.3"/>
	<path id="path4627-6-3-8" class="st3" d="M332.9,140.6l50,64.1"/>
	<circle id="path4485-7-4-0-9" class="st2" cx="382.5" cy="201.7" r="45.3"/>
	<path id="path4627-4-9-0-8-0-9" class="st3" d="M231.8,207l111-0.6"/>
	<path id="path4627-4-9-0-8-0-8-1" class="st3" d="M164.8,111.2   l106.1,0.6"/>
</g>
</svg>