<?xml version="1.0" encoding="UTF-8" standalone="no"?>
<!-- Generator: Adobe Illustrator 19.1.0, SVG Export Plug-In . SVG Version: 6.00 Build 0)  -->
<svg xmlns:dc="http://purl.org/dc/elements/1.1/" xmlns:cc="http://creativecommons.org/ns#" xmlns:rdf="http://www.w3.org/1999/02/22-rdf-syntax-ns#" xmlns:svg="http://www.w3.org/2000/svg" xmlns="http://www.w3.org/2000/svg" xmlns:sodipodi="http://sodipodi.sourceforge.net/DTD/sodipodi-0.dtd" xmlns:inkscape="http://www.inkscape.org/namespaces/inkscape" version="1.1" id="Layer_1" x="0px" y="0px" viewBox="0 0 64 64" style="enable-background:new 0 0 64 64;" xml:space="preserve" sodipodi:docname="Circle-icons-car-custom.svg" inkscape:version="0.92.4 (5da689c313, 2019-01-14)"><metadata id="metadata4769"><rdf:RDF><cc:Work rdf:about=""><dc:format>image/svg+xml</dc:format><dc:type rdf:resource="http://purl.org/dc/dcmitype/StillImage"/></cc:Work></rdf:RDF></metadata><defs id="defs4767"><clipPath clipPathUnits="userSpaceOnUse" id="clipPath844"><g id="use846" inkscape:label="Clip"><rect ry="1.4230446" style="fill:#c75c5c;fill-opacity:1;stroke-width:1.15492392" id="rect846" width="26.36669" height="4.5063071" x="18.792261" y="8.1026096"/></g></clipPath></defs><sodipodi:namedview pagecolor="#ffffff" bordercolor="#666666" borderopacity="1" objecttolerance="10" gridtolerance="10" guidetolerance="10" inkscape:pageopacity="0" inkscape:pageshadow="2" inkscape:window-width="1920" inkscape:window-height="1017" id="namedview4765" showgrid="false" inkscape:zoom="11.313709" inkscape:cx="38.046849" inkscape:cy="30.400117" inkscape:window-x="-8" inkscape:window-y="-8" inkscape:window-maximized="1" inkscape:current-layer="Layer_1" showguides="true" inkscape:guide-bbox="true"><sodipodi:guide position="18.749999,47.687498" orientation="1,0" id="guide842" inkscape:locked="false"/><sodipodi:guide position="45.156248,44.781248" orientation="1,0" id="guide844" inkscape:locked="false"/></sodipodi:namedview>
<style type="text/css" id="style4730">
	.st0{display:none;fill:#2B3544;}
	.st1{fill:#E0E0D1;}
	.st2{opacity:0.2;fill:#231F20;}
	.st3{fill:#4F5D73;}
	.st4{opacity:0.2;}
	.st5{fill:#231F20;}
	.st6{fill:none;stroke:#C75C5C;stroke-width:4;stroke-miterlimit:10;}
	.st7{fill:#C75C5C;stroke:#C75C5C;stroke-width:4;stroke-miterlimit:10;}
	.st8{fill:#F5CF87;stroke:#C75C5C;stroke-width:2;stroke-miterlimit:10;}
</style>
<rect x="-223" y="-1765" class="st0" width="608" height="1984" id="rect4732"/>
<circle class="st1" cx="32" cy="32" r="32" id="circle4734" style="fill:#76c2af;fill-opacity:1"/><rect style="fill:#65a192;fill-opacity:1;stroke-width:2.56600118" id="rect837" width="26.366692" height="3.0681243" x="18.792261" y="15.122794" ry="1.5340621"/><rect y="17.396441" x="22.387259" height="0.79000002" width="1.78" id="rect864" style="fill:#a65050;fill-opacity:1;stroke-width:1.00125158"/><rect style="fill:#a65050;fill-opacity:1;stroke-width:1.00125158" id="rect892" width="1.78" height="0.79000002" x="39.639679" y="17.396442"/>
<rect style="fill:#c75c5c;fill-opacity:1" id="rect851" width="26.406248" height="3.4687498" x="18.749998" y="14.125002" ry="1.1932427"/><g id="g4762" transform="translate(0,-4)">
	<rect style="fill:#77b3d4;fill-opacity:1;stroke-width:1.17699361" id="rect874" width="25.084745" height="11.627119" x="19.559322" y="25.627119"/><path class="st2" d="m 21.830508,50 c 0,1.1 -1.174576,2 -2.610169,2 h -2.61017 C 15.174576,52 14,51.1 14,50 V 39 c 0,-1.1 1.174576,-2 2.610169,-2 h 2.61017 c 1.435593,0 2.610169,0.9 2.610169,2 z" id="path4736" inkscape:connector-curvature="0" style="opacity:0.2;fill:#231f20;stroke-width:1.14240301"/>
	<path class="st2" d="m 50,50 c 0,1.1 -1.133898,2 -2.519774,2 h -2.519774 c -1.385876,0 -2.519774,-0.9 -2.519774,-2 V 39 c 0,-1.1 1.133898,-2 2.519774,-2 h 2.519774 C 48.866102,37 50,37.9 50,39 Z" id="path4738" inkscape:connector-curvature="0" style="opacity:0.2;fill:#231f20;stroke-width:1.12244689"/>
	<path class="st3" d="m 21.830508,48 c 0,1.1 -1.174576,2 -2.610169,2 h -2.61017 C 15.174576,50 14,49.1 14,48 V 37 c 0,-1.1 1.174576,-2 2.610169,-2 h 2.61017 c 1.435593,0 2.610169,0.9 2.610169,2 z" id="path4740" inkscape:connector-curvature="0" style="fill:#4f5d73;stroke-width:1.14240301"/>
	<path class="st3" d="m 50,48 c 0,1.1 -1.133898,2 -2.519774,2 h -2.519774 c -1.385876,0 -2.519774,-0.9 -2.519774,-2 V 37 c 0,-1.1 1.133898,-2 2.519774,-2 h 2.519774 C 48.866102,35 50,35.9 50,37 Z" id="path4742" inkscape:connector-curvature="0" style="fill:#4f5d73;stroke-width:1.12244689"/>
	<g class="st4" id="g4746" transform="matrix(1,0,0,0.8677061,0,11.97962)" style="opacity:0.2">
		
	</g>
	<path class="st6" d="m 48,39 c 0,2.2 -1.8,4 -4,4 H 20 c -2.2,0 -4,-1.8 -4,-4 l 2.743061,-8.777544 c 0.5,-2 1.075175,-4.939775 3.256939,-5.222456 3.460058,-0.448304 6.624725,-0.645053 9.596542,-0.659583 C 35.297428,24.322322 38.699235,24.58682 42,25 c 2.182963,0.273257 2.732969,2 3.232969,4 z" id="path4748" inkscape:connector-curvature="0" style="fill:none;stroke:#c75c5c;stroke-width:4;stroke-miterlimit:10" sodipodi:nodetypes="cssccssscc"/>
	<g class="st4" id="g4754" style="opacity:0.2" transform="matrix(1,0,0,0.85536724,0.06779661,6.4677959)">
		<path class="st5" d="m 50.513877,42 c 0,2.2 -1.642518,4 -3.650041,4 H 17.663499 c -2.007524,0 -3.650042,-1.8 -3.650042,-4 v -5 c 0,-2.2 1.685938,-4.532026 3.650042,-4 9.811726,2.657747 19.553496,2.940351 29.200337,0 1.953013,-0.595278 3.650041,1.8 3.650041,4 z" id="path4750" inkscape:connector-curvature="0" style="fill:#231f20;stroke-width:0.9552542" sodipodi:nodetypes="sssssssss"/>
		<path class="st5" d="M 46.979909,48 H 17.494226 c -3.040711,0 -5.328552,-3.366267 -5.466095,-5.14656 l -0.06247,-0.808575 c -0.137542,-1.780293 2.487856,-3.248255 5.528567,-3.248255 h 29.485683 c 3.040711,0 5.528566,1.461715 5.528566,3.248255 v 0.944168 C 52.508475,44.775573 50.02062,48 46.979909,48 Z M 17.494226,40.962114 c -1.01357,0 -1.842855,0.487238 -1.842855,1.082751 v 2.70688 c 0,0.595513 0.829285,1.082752 1.842855,1.082752 h 29.485683 c 1.01357,0 1.842855,-0.487239 1.842855,-1.082752 v -2.70688 c 0,-0.595513 -0.829285,-1.082751 -1.842855,-1.082751 z" id="path4752" inkscape:connector-curvature="0" style="fill:#231f20;stroke-width:0.70628512" sodipodi:nodetypes="ssssssssssssssssss"/>
	</g>
	<path class="st7" d="M 50.372881,40.955217 C 52.544126,42.768292 44.776224,44.014379 42.576271,44 L 21.830508,43.864407 c -2.199953,-0.01438 -9.086528,-0.778575 -7.864406,-2.231224 l 4.542373,-5.3992 c 4.61409,0.960043 23.049406,1.113088 26.372881,0.135593 z" id="path4756" inkscape:connector-curvature="0" style="fill:#c75c5c;stroke:#c75c5c;stroke-width:3.71567655;stroke-miterlimit:10" sodipodi:nodetypes="ssssccs"/>
	<path class="st8" d="m 25.215281,37.613078 c 0,2.356336 -5.765791,4.335592 -8.036106,4.335592 v 0 c -2.270315,0 -4.127845,-1.927911 -4.127845,-4.284246 v 0 c 0,-2.356336 1.85753,-4.284246 4.127845,-4.284246 v 0 c 2.270315,0 8.036106,1.876565 8.036106,4.2329 z" id="path4758" inkscape:connector-curvature="0" style="fill:#f5cf87;stroke:#c75c5c;stroke-width:2.10265946;stroke-miterlimit:10" sodipodi:nodetypes="sccccccs"/>
	<path class="st8" d="m 50.960019,37.808242 c 0,2.283478 -1.875638,4.151777 -4.168084,4.151777 v 0 c -2.292447,0 -8.114444,-1.967816 -8.114444,-4.251294 v 0 c 0,-2.283477 5.821997,-4.05226 8.114444,-4.05226 v 0 c 2.292446,0 4.168084,1.8683 4.168084,4.151777 z" id="path4760" inkscape:connector-curvature="0" style="fill:#f5cf87;stroke:#c75c5c;stroke-width:2.0799613;stroke-miterlimit:10" sodipodi:nodetypes="sccccccs"/>
</g>
<rect style="fill:#c75c5c;fill-opacity:1" id="rect848" width="1.7737594" height="4.1227922" x="22.387259" y="18.186441"/><rect style="fill:#65a192;fill-opacity:1;stroke-width:0.82101643" id="rect852" width="15.484439" height="0.45240217" x="24.16148" y="16.649254" ry="0.22620109"/><rect style="fill:#65a192;fill-opacity:1;stroke-width:1.07092249" id="rect872" width="24.237288" height="0.971928" x="19.898306" y="14.743466" ry="0.46875" rx="0"/><rect y="18.186443" x="39.64592" height="4.1227903" width="1.7737594" id="rect850" style="fill:#c75c5c;fill-opacity:1"/></svg>