<?xml version="1.0" encoding="UTF-8"?>
<!-- Generator: Adobe Illustrator 22.1.0, SVG Export Plug-In . SVG Version: 6.00 Build 0)  -->
<svg version="1.1" xmlns="http://www.w3.org/2000/svg" xmlns:xlink="http://www.w3.org/1999/xlink" x="0px" y="0px" width="512px" height="512px" viewBox="0 0 512 512" style="enable-background:new 0 0 512 512;" xml:space="preserve">
<style type="text/css">
	.st0{fill:#E0E0D1;}
	.st1{opacity:0.2;}
	.st2{fill:#231F20;}
	.st3{fill:#4F5D73;}
	.st4{fill:#76C2AF;}
</style>
<g id="Calque_1">
	<circle class="st0" cx="256" cy="256" r="256"/>
</g>
<g id="Calque_2">
	<g>
		<g class="st1">
			<path class="st2" d="M193.6,325.2h-18.4l17.6-31.2c6.4-11.2,2.4-26.4-8.8-32.8l0,0l-48-28l0,0c-11.2-6.4-26.4-2.4-32.8,8.8l0,0     L76,289.2c-6.4,11.2-6.4,30.4,0,41.6l44.8,76.8c3.2,5.6,8.8,11.2,16,15.2h0.8l0,0c6.4,3.2,12.8,5.6,19.2,5.6h54.4l32-54.4     l-32-49.6h-17.6V325.2z"/>
		</g>
		<g class="st1">
			<path class="st2" d="M434.4,290l-27.2-48H344l-26.4,52l8.8,15.2l0,0l9.6,16h-36c-13.6,0-24,10.4-24,24l0,0v56l0,0     c0,12.8,10.4,24,24,24l0,0h55.2c13.6,0,29.6-9.6,36-20.8l44.8-76.8c3.2-5.6,4.8-13.6,4.8-20.8C439.2,302.8,437.6,295.6,434.4,290     z"/>
		</g>
		<g class="st1">
			<path class="st2" d="M305.6,226.8L305.6,226.8l48-28l0,0c11.2-6.4,15.2-21.6,8.8-32.8l0,0l-27.2-47.2     c-6.4-11.2-22.4-20.8-36-20.8h-88.8c-6.4,0-14.4,2.4-20.8,6.4c0,0-0.8,0-0.8,0.8l0,0c-6.4,4-11.2,8.8-14.4,14.4l-28,48l32,55.2     h58.4l17.6-33.6l0,0l0,0l0,0l17.6,31.2C280,230,294.4,233.2,305.6,226.8z"/>
		</g>
	</g>
	<g>
		<g>
			<g>
				<path class="st3" d="M175.2,309.2l-40,69.6c0,0-6.4,10.4-5.6,19.2c0,4,1.6,7.2,6.4,9.6c6.4,4,13.6,5.6,20,5.6h54.4l32-54.4      l-32-49.6C210.4,309.2,175.2,309.2,175.2,309.2z"/>
			</g>
		</g>
		<g>
			<path class="st4" d="M130.4,397.2c-0.8-8.8,5.6-19.2,5.6-19.2l40-69.6l17.6-31.2c6.4-11.2,2.4-26.4-8.8-32.8l0,0l-48-28l0,0     c-11.2-6.4-26.4-2.4-32.8,8.8l0,0l-27.2,47.2c-6.4,11.2-6.4,30.4,0,41.6l44.8,76.8c3.2,5.6,8.8,11.2,16,15.2     C132,405.2,130.4,401.2,130.4,397.2z"/>
		</g>
		<g class="st1">
			<path class="st2" d="M175.2,309.2l-40,69.6c0,0-6.4,10.4-5.6,19.2c0,4,1.6,7.2,6.4,9.6h0.8l56.8-98.4H175.2z"/>
		</g>
	</g>
	<g>
		<g>
			<g>
				<path class="st3" d="M335.2,309.2h80c0,0,12,0,19.2-4.8c3.2-2.4,5.6-5.6,5.6-10.4c0-7.2-1.6-15.2-4.8-20.8l-27.2-48h-63.2      l-26.4,52L335.2,309.2z"/>
			</g>
		</g>
		<g>
			<path class="st4" d="M434.4,304.4c-7.2,4.8-19.2,4.8-19.2,4.8h-80h-36c-13.6,0-24,10.4-24,24l0,0v56l0,0c0,12.8,10.4,24,24,24     l0,0h55.2c13.6,0,29.6-9.6,36-20.8l44.8-76.8c3.2-5.6,4.8-13.6,4.8-20.8C440,298.8,437.6,302,434.4,304.4z"/>
		</g>
		<g class="st1">
			<path class="st2" d="M335.2,309.2h80c0,0,12,0,19.2-4.8c3.2-2.4,5.6-5.6,5.6-10.4v-0.8H326.4L335.2,309.2z"/>
		</g>
	</g>
	<g>
		<g>
			<g>
				<path class="st3" d="M255.2,171.6l-40-69.6c0,0-5.6-10.4-13.6-14.4c-3.2-1.6-7.2-2.4-11.2,0.8c-6.4,4-12,8.8-15.2,14.4l-28,48      l32,55.2h58.4L255.2,171.6z"/>
			</g>
		</g>
		<g>
			<path class="st4" d="M201.6,87.6c8,4,13.6,14.4,13.6,14.4l40,69.6l17.6,31.2c6.4,11.2,21.6,15.2,32.8,8.8l0,0l48-28l0,0     c11.2-6.4,15.2-21.6,8.8-32.8l0,0l-27.2-47.2c-6.4-11.2-22.4-20.8-36-20.8h-88.8c-6.4,0-14.4,2.4-20.8,6.4     C193.6,85.2,197.6,86,201.6,87.6z"/>
		</g>
		<g class="st1">
			<path class="st2" d="M255.2,171.6l-40-69.6c0,0-5.6-10.4-13.6-14.4c-3.2-1.6-7.2-2.4-11.2,0.8c0,0-0.8,0-0.8,0.8l56.8,98.4     L255.2,171.6z"/>
		</g>
	</g>
</g>
</svg>