<?xml version="1.0" encoding="UTF-8" standalone="no"?>
<!-- Generator: Adobe Illustrator 19.1.0, SVG Export Plug-In . SVG Version: 6.00 Build 0)  -->
<svg xmlns:dc="http://purl.org/dc/elements/1.1/" xmlns:cc="http://creativecommons.org/ns#" xmlns:rdf="http://www.w3.org/1999/02/22-rdf-syntax-ns#" xmlns:svg="http://www.w3.org/2000/svg" xmlns="http://www.w3.org/2000/svg" xmlns:sodipodi="http://sodipodi.sourceforge.net/DTD/sodipodi-0.dtd" xmlns:inkscape="http://www.inkscape.org/namespaces/inkscape" version="1.1" id="Layer_1" x="0px" y="0px" viewBox="0 0 64 64" style="enable-background:new 0 0 64 64;" xml:space="preserve" inkscape:version="0.91 r13725" sodipodi:docname="Circle-icons-typography.svg"><metadata id="metadata23"><rdf:RDF><cc:Work rdf:about=""><dc:format>image/svg+xml</dc:format><dc:type rdf:resource="http://purl.org/dc/dcmitype/StillImage"/></cc:Work></rdf:RDF></metadata><defs id="defs21"/><sodipodi:namedview pagecolor="#ffffff" bordercolor="#666666" borderopacity="1" objecttolerance="10" gridtolerance="10" guidetolerance="10" inkscape:pageopacity="0" inkscape:pageshadow="2" inkscape:window-width="1440" inkscape:window-height="793" id="namedview19" showgrid="true" showguides="false" inkscape:zoom="3.6875" inkscape:cx="44.140436" inkscape:cy="21.152542" inkscape:window-x="0" inkscape:window-y="1" inkscape:window-maximized="1" inkscape:current-layer="Layer_1"><inkscape:grid type="xygrid" id="grid3399"/></sodipodi:namedview><style type="text/css" id="style3">
	.st0{fill:#77B3D4;}
	.st1{opacity:0.2;fill:#231F20;}
	.st2{opacity:0.2;}
	.st3{fill:#231F20;}
	.st4{fill:none;stroke:#FFFFFF;stroke-width:3;stroke-linecap:round;stroke-linejoin:round;stroke-miterlimit:10;}
</style><circle class="st0" cx="32" cy="32" r="32" id="circle5"/><g style="font-style:normal;font-variant:normal;font-weight:bold;font-stretch:normal;font-size:40px;line-height:125%;font-family:sans-serif;-inkscape-font-specification:'sans-serif, Bold';text-align:start;letter-spacing:0px;word-spacing:0px;writing-mode:lr-tb;text-anchor:start;fill:#6695b0;fill-opacity:1;stroke:none;stroke-width:1px;stroke-linecap:butt;stroke-linejoin:miter;stroke-opacity:1" id="text3355"><path d="m 56.853676,20.676575 q -0.214844,0.566406 -0.507813,0.859375 -0.214843,0.214843 -0.664062,0.351562 l -4.21875,1.289063 q 0.390625,-0.703125 0.683594,-0.957032 0.292968,-0.273437 1.054687,-0.488281 -0.546875,-0.351562 -0.800781,-0.644531 -0.234375,-0.3125 -0.234375,-0.605469 0,-0.253906 0.15625,-0.566406 0.15625,-0.332031 0.410156,-0.644531 1.269531,-1.699219 2.519531,-1.699219 0.371094,0 0.585938,0.253906 0.234375,0.234375 0.234375,0.625 0,0.3125 -0.09766,0.546875 -0.07813,0.214844 -0.351563,0.664063 -0.976562,-0.488282 -1.328125,-0.488282 -0.351562,0 -0.703125,0.175782 -0.234375,0.117187 -0.429687,0.3125 0,0.253906 0.9375,0.78125 0.9375,0.527343 1.347656,0.527343 0.253906,0 1.40625,-0.292968 z m 0.03906,20.527343 q 0,1.738282 -0.410156,3.183594 -0.410156,1.425781 -1.582031,3.847656 l -1.171875,-0.46875 q 0.46875,-2.5 0.46875,-4.0625 0,-1.191406 -0.195313,-3.496093 -0.195312,-2.304688 -0.488281,-4.550782 -0.292969,-2.265625 -0.957031,-5.390625 -0.234375,-1.09375 -0.234375,-1.503906 0,-0.605469 0.605469,-2.050781 0.605468,-1.464844 1.699218,-3.535156 l 1.171875,6.914062 q 0.644532,3.945313 0.898438,6.835938 0.195312,2.226562 0.195312,4.277343 z" style="" id="path3414"/></g><g style="font-style:normal;font-variant:normal;font-weight:bold;font-stretch:normal;font-size:40px;line-height:125%;font-family:sans-serif;-inkscape-font-specification:'sans-serif, Bold';text-align:start;letter-spacing:0px;word-spacing:0px;writing-mode:lr-tb;text-anchor:start;fill:#ffffff;fill-opacity:1;stroke:none;stroke-width:1px;stroke-linecap:butt;stroke-linejoin:miter;stroke-opacity:1" id="text3351"><path d="m 55.226555,19.049454 q -0.214844,0.566406 -0.507813,0.859375 -0.214843,0.214843 -0.664062,0.351562 l -4.21875,1.289063 q 0.390625,-0.703125 0.683594,-0.957032 0.292968,-0.273437 1.054687,-0.488281 -0.546875,-0.351562 -0.800781,-0.644531 -0.234375,-0.3125 -0.234375,-0.605469 0,-0.253906 0.15625,-0.566406 0.15625,-0.332031 0.410156,-0.644531 1.269531,-1.699219 2.519531,-1.699219 0.371094,0 0.585938,0.253906 0.234375,0.234375 0.234375,0.625 0,0.3125 -0.09766,0.546875 -0.07813,0.214844 -0.351563,0.664063 -0.976562,-0.488282 -1.328125,-0.488282 -0.351562,0 -0.703125,0.175782 -0.234375,0.117187 -0.429687,0.3125 0,0.253906 0.9375,0.78125 0.9375,0.527343 1.347656,0.527343 0.253906,0 1.40625,-0.292968 z m 0.03906,20.527343 q 0,1.738282 -0.410156,3.183594 -0.410156,1.425781 -1.582031,3.847656 l -1.171875,-0.46875 q 0.46875,-2.5 0.46875,-4.0625 0,-1.191406 -0.195313,-3.496093 -0.195312,-2.304688 -0.488281,-4.550782 -0.292969,-2.265625 -0.957031,-5.390625 -0.234375,-1.09375 -0.234375,-1.503906 0,-0.605469 0.605469,-2.050781 0.605468,-1.464844 1.699218,-3.535156 l 1.171875,6.914062 q 0.644532,3.945313 0.898438,6.835938 0.195312,2.226562 0.195312,4.277343 z" style="" id="path3417"/></g><g style="font-style:normal;font-variant:normal;font-weight:bold;font-stretch:normal;font-size:40px;line-height:125%;font-family:sans-serif;-inkscape-font-specification:'sans-serif, Bold';text-align:start;letter-spacing:0px;word-spacing:0px;writing-mode:lr-tb;text-anchor:start;fill:#6695b0;fill-opacity:1;stroke:none;stroke-width:1px;stroke-linecap:butt;stroke-linejoin:miter;stroke-opacity:1" id="text3363"><path d="m 15.090963,40.390358 q 0,1.738281 -0.410156,3.183594 -0.410157,1.425781 -1.582032,3.847656 L 11.9269,46.952858 q 0.46875,-2.5 0.46875,-4.0625 0,-1.191406 -0.195312,-3.496094 -0.195313,-2.304687 -0.488281,-4.550781 -0.292969,-2.265625 -0.957032,-5.390625 -0.234375,-1.09375 -0.234375,-1.503906 0,-0.605469 0.605469,-2.050782 0.605469,-1.464843 1.699219,-3.535156 l 1.171875,6.914063 q 0.644531,3.945312 0.898437,6.835937 0.195313,2.226563 0.195313,4.277344 z" style="" id="path3402"/></g><g style="font-style:normal;font-variant:normal;font-weight:bold;font-stretch:normal;font-size:40px;line-height:125%;font-family:sans-serif;-inkscape-font-specification:'sans-serif, Bold';text-align:start;letter-spacing:0px;word-spacing:0px;writing-mode:lr-tb;text-anchor:start;fill:#ffffff;fill-opacity:1;stroke:none;stroke-width:1px;stroke-linecap:butt;stroke-linejoin:miter;stroke-opacity:1" id="text3367"><path d="m 13.463842,38.763237 q 0,1.738281 -0.410156,3.183594 -0.410157,1.425781 -1.582032,3.847656 l -1.171875,-0.46875 q 0.46875,-2.5 0.46875,-4.0625 0,-1.191406 -0.195312,-3.496094 -0.195313,-2.304687 -0.488281,-4.550781 -0.2929691,-2.265625 -0.9570316,-5.390625 -0.234375,-1.09375 -0.234375,-1.503906 0,-0.605469 0.6054688,-2.050782 0.6054688,-1.464843 1.6992188,-3.535156 l 1.171875,6.914063 q 0.644531,3.945312 0.898437,6.835937 0.195313,2.226563 0.195313,4.277344 z" style="" id="path3405"/></g><g style="font-style:normal;font-variant:normal;font-weight:bold;font-stretch:normal;font-size:40px;line-height:125%;font-family:sans-serif;-inkscape-font-specification:'sans-serif, Bold';text-align:start;letter-spacing:0px;word-spacing:0px;writing-mode:lr-tb;text-anchor:start;fill:#6695b0;fill-opacity:1;stroke:none;stroke-width:1px;stroke-linecap:butt;stroke-linejoin:miter;stroke-opacity:1" id="text3375"><path d="m 41.971325,9.714777 q 0,1.074219 -0.214844,1.777344 -0.214844,0.703125 -0.917969,1.855468 -0.527343,-1.386718 -0.898437,-1.796875 -0.351563,-0.429687 -1.035156,-0.429687 -1.054688,0 -2.910157,1.210937 -1.835937,1.191407 -1.835937,2.011719 0,0.429688 0.742187,0.605469 0.527344,0.117187 1.640625,0.117187 0.292969,0 0.566407,0 0.292968,0 0.585937,-0.01953 2.128906,0 2.832031,0.429688 0.605469,0.371093 0.605469,1.445312 0,2.109375 -0.78125,4.042969 -0.976562,2.441406 -2.832031,3.476562 -2.324219,1.308594 -4.84375,2.109375 -2.5,0.800782 -4.667969,0.800782 -6.074219,0 -6.074219,-5.449219 0,-2.753906 0.683594,-4.746094 0.761719,-2.226562 3.222656,-6.035156 l 0.898438,0.585937 q -1.445313,2.441407 -2.167969,4.355469 -0.722656,1.894531 -0.722656,3.320313 0,3.691406 4.160156,3.691406 1.5625,0 2.96875,-0.273438 1.40625,-0.292968 2.851563,-0.800781 0.9375,-0.332031 2.148437,-0.859375 1.933594,-0.859375 2.050781,-0.917969 0.878907,-0.46875 0.878907,-0.839843 0,-0.195313 -0.957032,-0.234375 -0.9375,-0.05859 -1.328125,-0.05859 -3.007812,0 -4.023437,-0.859375 -0.820313,-0.703125 -0.820313,-2.597656 0,-0.898438 0.566407,-2.265625 0.585937,-1.367188 1.523437,-2.714844 1.425781,-2.0507813 2.851563,-3.1054688 1.425781,-1.0546875 2.792968,-1.0546875 1.132813,0 1.796875,0.8789063 0.664063,0.8789062 0.664063,2.34375 z m -5.175781,19.296875 -1.445313,2.65625 -3.007812,-1.523438 -1.445313,2.578125 -3.007812,-1.601562 1.484375,-2.695313 2.929687,1.523438 1.445313,-2.5 3.046875,1.5625 z" style="" id="path3423"/></g><g style="font-style:normal;font-variant:normal;font-weight:bold;font-stretch:normal;font-size:40px;line-height:125%;font-family:sans-serif;-inkscape-font-specification:'sans-serif, Bold';text-align:start;letter-spacing:0px;word-spacing:0px;writing-mode:lr-tb;text-anchor:start;fill:#ffffff;fill-opacity:1;stroke:none;stroke-width:1px;stroke-linecap:butt;stroke-linejoin:miter;stroke-opacity:1" id="text3379"><path d="m 41.157764,7.0029106 q 0,1.0742188 -0.214843,1.7773438 -0.214844,0.703125 -0.917969,1.8554686 -0.527344,-1.3867186 -0.898438,-1.7968749 -0.351562,-0.4296875 -1.035156,-0.4296875 -1.054687,0 -2.910156,1.2109375 -1.835938,1.1914059 -1.835938,2.0117189 0,0.429687 0.742188,0.605469 0.527344,0.117187 1.640625,0.117187 0.292969,0 0.566406,0 0.292969,0 0.585938,-0.01953 2.128906,0 2.832031,0.429687 0.605469,0.371094 0.605469,1.445313 0,2.109375 -0.78125,4.042969 -0.976563,2.441406 -2.832032,3.476562 -2.324218,1.308594 -4.84375,2.109375 -2.5,0.800781 -4.667968,0.800781 -6.074219,0 -6.074219,-5.449218 0,-2.753907 0.683594,-4.746094 0.761718,-2.226563 3.222656,-6.0351564 l 0.898437,0.5859375 q -1.445312,2.4414059 -2.167968,4.3554689 -0.722657,1.894531 -0.722657,3.320312 0,3.691407 4.160157,3.691407 1.5625,0 2.96875,-0.273438 1.40625,-0.292969 2.851562,-0.800781 0.9375,-0.332031 2.148438,-0.859375 1.933593,-0.859375 2.050781,-0.917969 0.878906,-0.46875 0.878906,-0.839844 0,-0.195312 -0.957031,-0.234375 -0.9375,-0.05859 -1.328125,-0.05859 -3.007813,0 -4.023438,-0.859375 -0.820312,-0.703125 -0.820312,-2.597657 0,-0.898437 0.566406,-2.265625 0.585938,-1.3671871 1.523438,-2.7148434 1.425781,-2.0507812 2.851562,-3.1054687 1.425781,-1.0546875 2.792969,-1.0546875 1.132812,0 1.796875,0.8789062 0.664062,0.8789063 0.664062,2.34375 z m -5.175781,19.2968754 -1.445312,2.65625 -3.007813,-1.523438 -1.445312,2.578125 -3.007813,-1.601562 1.484375,-2.695313 2.929688,1.523438 1.445312,-2.5 3.046875,1.5625 z" style="" id="path3420"/></g><g style="font-style:normal;font-variant:normal;font-weight:bold;font-stretch:normal;font-size:40px;line-height:125%;font-family:sans-serif;-inkscape-font-specification:'sans-serif, Bold';text-align:start;letter-spacing:0px;word-spacing:0px;writing-mode:lr-tb;text-anchor:start;fill:#6695b0;fill-opacity:1;stroke:none;stroke-width:1px;stroke-linecap:butt;stroke-linejoin:miter;stroke-opacity:1" id="text3387"><path d="m 42.242514,43.613083 q 0,1.074219 -0.214844,1.777344 -0.214844,0.703125 -0.917969,1.855468 -0.527344,-1.386718 -0.898437,-1.796875 -0.351563,-0.429687 -1.035157,-0.429687 -1.054687,0 -2.910156,1.210937 -1.835937,1.191407 -1.835937,2.011719 0,0.429688 0.742187,0.605469 0.527344,0.117187 1.640625,0.117187 0.292969,0 0.566406,0 0.292969,0 0.585938,-0.01953 2.128906,0 2.832031,0.429688 0.605469,0.371093 0.605469,1.445312 0,2.109375 -0.78125,4.042969 -0.976563,2.441406 -2.832031,3.476562 -2.324219,1.308594 -4.84375,2.109375 -2.5,0.800782 -4.667969,0.800782 -6.074219,0 -6.074219,-5.449219 0,-2.753906 0.683594,-4.746094 0.761719,-2.226562 3.222656,-6.035156 l 0.898438,0.585937 q -1.445313,2.441407 -2.167969,4.355469 -0.722656,1.894531 -0.722656,3.320313 0,3.691406 4.160156,3.691406 1.5625,0 2.96875,-0.273438 1.40625,-0.292968 2.851562,-0.800781 0.9375,-0.332031 2.148438,-0.859375 1.933594,-0.859375 2.050781,-0.917969 0.878906,-0.46875 0.878906,-0.839843 0,-0.195313 -0.957031,-0.234375 -0.9375,-0.05859 -1.328125,-0.05859 -3.007812,0 -4.023437,-0.859375 -0.820313,-0.703125 -0.820313,-2.597656 0,-0.898438 0.566406,-2.265625 0.585938,-1.367188 1.523438,-2.714844 1.425781,-2.050781 2.851562,-3.105469 1.425782,-1.054687 2.792969,-1.054687 1.132813,0 1.796875,0.878906 0.664063,0.878906 0.664063,2.34375 z" style="" id="path3408"/></g><g style="font-style:normal;font-variant:normal;font-weight:bold;font-stretch:normal;font-size:40px;line-height:125%;font-family:sans-serif;-inkscape-font-specification:'sans-serif, Bold';text-align:start;letter-spacing:0px;word-spacing:0px;writing-mode:lr-tb;text-anchor:start;fill:#ffffff;fill-opacity:1;stroke:none;stroke-width:1px;stroke-linecap:butt;stroke-linejoin:miter;stroke-opacity:1" id="text3391"><path d="m 41.428953,40.901215 q 0,1.074218 -0.214844,1.777343 -0.214843,0.703125 -0.917968,1.855469 -0.527344,-1.386719 -0.898438,-1.796875 -0.351562,-0.429687 -1.035156,-0.429687 -1.054688,0 -2.910156,1.210937 -1.835938,1.191406 -1.835938,2.011719 0,0.429687 0.742188,0.605469 0.527343,0.117187 1.640625,0.117187 0.292968,0 0.566406,0 0.292969,0 0.585937,-0.01953 2.128907,0 2.832032,0.429687 0.605468,0.371094 0.605468,1.445313 0,2.109375 -0.78125,4.042969 -0.976562,2.441406 -2.832031,3.476562 -2.324219,1.308594 -4.84375,2.109375 -2.5,0.800781 -4.667969,0.800781 -6.074218,0 -6.074218,-5.449218 0,-2.753907 0.683593,-4.746094 0.761719,-2.226563 3.222657,-6.035156 l 0.898437,0.585937 q -1.445312,2.441406 -2.167969,4.355469 -0.722656,1.894531 -0.722656,3.320312 0,3.691407 4.160156,3.691407 1.5625,0 2.96875,-0.273438 1.40625,-0.292969 2.851563,-0.800781 0.9375,-0.332031 2.148437,-0.859375 1.933594,-0.859375 2.050782,-0.917969 0.878906,-0.46875 0.878906,-0.839844 0,-0.195312 -0.957031,-0.234375 -0.9375,-0.05859 -1.328125,-0.05859 -3.007813,0 -4.023438,-0.859375 -0.820312,-0.703125 -0.820312,-2.597657 0,-0.898437 0.566406,-2.265625 0.585937,-1.367187 1.523437,-2.714843 1.425782,-2.050782 2.851563,-3.105469 1.425781,-1.054688 2.792969,-1.054688 1.132812,0 1.796875,0.878907 0.664062,0.878906 0.664062,2.34375 z" style="" id="path3411"/></g></svg>