<?xml version="1.0" encoding="UTF-8"?>
<!-- Generator: Adobe Illustrator 19.2.0, SVG Export Plug-In . SVG Version: 6.00 Build 0)  -->
<svg version="1.1" id="Calque_1" xmlns="http://www.w3.org/2000/svg" xmlns:xlink="http://www.w3.org/1999/xlink" x="0px" y="0px" width="512px" height="512px" viewBox="0 0 512 512" style="enable-background:new 0 0 512 512;" xml:space="preserve">
<style type="text/css">
	.st0{fill:#4F5D73;}
	.st1{fill:#91B4C3;}
	.st2{fill:#231F20;}
	.st3{fill:#FAE6BE;}
	.st4{fill:#DC967D;}
	.st5{fill:#E6AF78;}
	.st6{fill:#5F8291;}
	.st7{fill:#7D7E7F;}
</style>
<ellipse class="st0" cx="256.3" cy="256" rx="255.8" ry="256"/>
<g>
	<g>
		<path class="st1" d="M383.7,293.5c0,0,3.4,37.7,47.6,53.6c0,0,13.7,1.7,0.4-4.3s-25.3-18.9-26.6-23.2c0,0,11.2,12.9,32.2,18.4    c0,0,3.9,2.1,6.9-0.9c0,0-45.2-51.9-45-74.6c0,0-2.6-12-3.4-24.4c0,0-13.3-63.2-31.7-57C339.8,189.2,383.7,293.5,383.7,293.5z"/>
	</g>
	<g>
		<path class="st1" d="M385.9,302.7c0,0,8.3,32.1,45.8,44.3c0,0,6,0.9,5.8-0.5c0,0-2.9-2.8-6.8-4.1c-3.9-1.3-23.9-15.5-24.7-22    c0,0,8.3,9,21.1,14c4.3,1.7-32.2-26.8-37.5-39.9"/>
	</g>
</g>
<g>
	<path class="st1" d="M337.7,296.5c-1.2,21-5.1,45.3-19.8,61.4c-3,3.2-8.3,8-11.4,11.1c-7.8,7.9,7.7,1.7,9.5-0.5   c-2.2,2.9-5.9,8.7-5.6,12.4c0-0.3,4.8-2.8,5.3-3.1c1.8-1.2,3.6-2.5,5.4-3.7c7.1-4.9,13-10.9,18.4-17.4c5.2-6.4,10-13.2,13.8-20.6   c2-3.9,3.7-8,5.2-12.1c3-8.7,4.8-18.2,4.7-27.4c0,0,0.6,49.2-24,110.1c-0.4,0.9,0.5,1.2,1.1,0.9c1.9-0.7,2.7-3.5,3.7-5.2   c1-1.8,2-3.5,3-5.3c2.4-4.4,4.8-8.8,6.9-13.3c1-2.1,2-4.2,2.8-6.5c-1.2,3.7-2.5,7.4-3.7,11.2c-2,6.2-3.9,12.4-5.9,18.5   c-0.2,0.8-2.4,7.4-0.9,7.4c1.1,0,2.5-2.3,3.2-3c2.9-2.8,6.3-5.1,9.2-7.9c3.3-3.2,6.3-6.6,8.9-10.3c3.5-4.9,6.6-10,9.2-15.5   c3.1-6.7,5-13.8,6.7-20.9c0.2-0.9,0.5-1.9,0.7-2.8c7.7-40.6,6.9-104.1,6.6-113.5c-0.3-9.4-7.4-48.6-24.3-59.8   c-16.9-11.2-16,3.4-17.7,5.4c-1.7,2,7.7,50.6,7.7,50.6L337.7,296.5z"/>
</g>
<g>
	<path class="st1" d="M337.1,294.6c0,0,2.6,49.2-28,72.3c0,0-11,8.6-0.4,4.9c0,0,6.1-1.9,6.9-2.7c0,0-6.3,10.7-4.8,11.2   c0,0,15.3-7.7,31.7-28c0,0,8.1-20.9,8.1-46.6c0,0,0.3,6.8,9.8,11.1c0,0,1.2-0.9,2-8.1l-0.4,0.6c0,0,1.4,33.7-21.3,93.8   c0,0-4.7,9.4,2.6,0c0-1.3,14.3-24.4,14-26.3c-0.4-2.6-12.3,36.6-11.4,37c0.9,0.4,18.2-15,21.2-21.2c0,0-14.7,12.6-16.4,12.2   c0,0,38.6-82.3,18.9-157.4c-19.7-75.1-10.7-37.3-10.7-37.3l-23.6,21l12.9,23.2L337.1,294.6z"/>
</g>
<g>
	<path class="st1" d="M357.5,156.7c-3.3-24.3-40.2-38.8-60.9-39.2c-2.4,0-8.3-3.2-10.9-3.8c-13.1-3-29.3-1.8-42.5,0.4   c-10.5,1.7-20.5,5.4-30.1,10.1c-8.3,4.1-16.2,8.9-23.7,14.1l-9.4,51.2l183.3,9.7C363.3,199.4,357.5,156.8,357.5,156.7z"/>
</g>
<g>
	<path class="st1" d="M181.8,145.5c0,0,6.9-6.3,10.6-8.9c0,0-5.7,10.3-4.9,15.2c0,0,6-13.7,23.2-15.7c0,0-20.9,18.8-25.4,44.2l7.4-2   l28,34.9l-12,44.9l-10.9,10.6c0,0-6.9-19.8-17.2-8.4c0,0-3.1,3.1-4,12.3l-10.3-3.4l7.4-118.1L181.8,145.5z"/>
</g>
<g>
	<g>
		<g>
			<path class="st2" d="M314.6,317.8l0.8-0.2"/>
		</g>
	</g>
</g>
<g>
	<path class="st3" d="M195.7,258.2c-6.6-3.6-15.5-1.8-19.9,4c-4.8,6.4-4.5,16.1-2.2,23.4c3.6,11.4,13.4,17.2,13.4,17.2   c9.1,4.3,17.9,0,17.9,0s-2.6-10.6-1.6-5.9s3.6,9.7,3.6,9.7c3.2,5.4,7.5,10.1,11.8,14.6c7.2,7.6,15.8,14.8,26.1,17.7   c4.7,1.3,9.1,1.4,14,1.2c6.1-0.2,12.2-0.5,18.2-1c5.3-0.5,11.2-0.9,16.1-3c9.4-4,12.8-16.1,14.9-20.1c1.9-3.6,7-7.9,7.3-8.1   c6.5-6.5,10.4-10,13.9-18.3c5.9-14.2,11-29.1,14.6-44c3.1-12.9,5.4-26.6,2.3-39.7c-1.5-6.4-5.5-12.6-11.1-16.1   c-26.9-17.2-76.3-34.3-96.6-2.6C218,218.8,197.5,258.6,195.7,258.2z"/>
</g>
<g>
	<g>
		<path class="st4" d="M252.2,305.1c-2.9,0.8-6.6,7.2-7.6,9.9c-1.1,3.1-5.4,16,9.4,17.7c11.1,1.3,14.8-14.1,16.4-21.6    c0.1-0.3-0.4-0.4,0-0.3c-3.3-1.1-5.4-1.6-8.7-2.6c-2.5-0.8-6.7-3.6-9.4-3.2C252.3,305.1,252.3,305.1,252.2,305.1z"/>
	</g>
</g>
<g>
	<path class="st5" d="M270.3,290.2c-0.2-0.2-0.5-0.3-0.8-0.3c-1.7-0.2-5.6,2.4-5.5,4.2c0,0,0.3,3.6,0.3,3.6s2.9,0.6,2.9,1.9   c0,0,5-0.9,4.6-4.6C271.6,293.6,271.6,291.1,270.3,290.2z"/>
</g>
<g>
	<path class="st1" d="M291.3,135.3c-92.1-31.2-113.2,58.9-116.7,75.5c-1.6,7.7-1.3,15.7,0.6,23.3c0.7,2.7,3.7,12.7,8.3,11   c4-1.5,8-12.4,9.7-15.9c2.4-4.8,4.6-9.6,6.9-14.4c-5.9,13-9.3,28.5-4.3,42.2c1.4,3.8,8,16.8,12.5,16.9c6.3,0.1,6.9-10.3,7.4-14.6   c1.1-8.6,2.5-25.7,7-33c5.3-8.6,8.2-12.9,14.5-20.8c3.1-3.9,13.2-21.2,17.9-22.9c-6.6,2.5-18.7,25.1-19.7,32.2   c-0.8,5.3,1.3,18.1,8.3,18.7c5,0.4,7.2-8.7,8.4-12c2.1-5.8,4.8-10.5,8.5-15.5c6.2-8.2,13.4-15.9,20.8-23.1   c-3.8,3.5-6.8,7.1-9.4,10.6c-16.5,22.4-10.2,43.5-9.2,45.4c1.1,2.3,6.3,6.6,7.4,5.4c1.1-1.1,3.7-4,10.3-26.3   c6.6-22.3,22.3-30.3,22.3-30.3c-0.3,0.2,2.3,22.6,2.3,24.2c-0.1,7.6-0.9,14.8-2.4,22.3c-1.3,6.4-13.8,30.6,3.3,17.8   c10.3-7.7,19.2-23.2,13.4-58.3c0,0,16.3,48.9-0.9,66.6c0,0,0.3,12.6,10.6,6c5.3-3.4,8.1-7.9,10.7-13.3c-1.4,8.9-4.1,17.4-6.6,26.1   c-1.4,4.9-8.1,13.6-3.8,18.5c5.1,5.7,14.9-3.6,18.3-6.9c16.3-15.7,12.9-58.6,12-64.9c0.7,3.4,1.6,6.8,2.5,10.1   c1.7,5.9,3.7,11.6,6.3,17.3c0.6,1.4,1.3,2.9,2.4,4c0.7,0.8,2.4,2.3,3.6,2.3c2.3,0,3.8-2.8,4.7-4.6c4.4-9.2,5.2-19.4,3.9-29.4   c-0.4-2.8-0.9-5.6-1.5-8.4c-2.1-9.8-5.5-23.2-14.5-29c0,0-5.4-47.7-52.6-43.7"/>
</g>
<g>
	<path class="st1" d="M303.6,195.9c0,0,2.4,18.8,1.1,24.9c0,0-0.6,8.9-2.1,13.4c-4.7,13.4-5.7,16.5-5.6,17.8   C297,253.4,323.3,219.9,303.6,195.9z"/>
</g>
<g>
	<path class="st1" d="M267.4,195.6c0,0,4.5-14.7,17.4-14.9c0,0-17.2,15.2-18,34.6c-0.7,6.9-1.2,14.1-0.6,21.1   c0.1,1.4,0.9,2.9,0.9,4.3c-4.7,2.6-5.5-6.1-6-9.4c-1.1-7.4-0.6-14,1.9-21.2c2.1-6.3,5.4-12.2,8.5-17.8   C271.4,192.1,270.7,191.8,267.4,195.6z"/>
</g>
<g>
	<path d="M268.5,197.5"/>
</g>
<g>
	<path d="M290.1,308.4L290.1,308.4"/>
	<path d="M290.5,308.5"/>
	<path d="M289.3,300.5L289.3,300.5L289.3,300.5"/>
	<path d="M290,302L290,302"/>
</g>
<g>
	<path d="M296.4,303"/>
</g>
<g>
	<line x1="296.2" y1="303" x2="296.6" y2="302.9"/>
	<path d="M297.8,309.2"/>
</g>
<g>
	<path class="st1" d="M253.3,182.8c-0.3,0.1-15.4,30.1-12.6,49c-0.1-0.6-2.3-1.8-2.9-2.9c-5.8-11.6-2.4-18.9,5.9-33.5   c2.1-3.6,5-7.6,7.9-10.6C252.5,183.8,252.7,183.9,253.3,182.8z"/>
</g>
<g>
	<path class="st6" d="M145.6,252.8l-2.3-9.4c0,0-10.9,32.9-12.6,91.5c0,0-3.7-40,0.6-58.9c4.3-18.9,12.3-50.6,12.3-50.6l7.7-0.3   l-0.3,19.4L145.6,252.8z"/>
</g>
<g>
	<path class="st1" d="M143.7,229.8c0,0-21.2,45.5-13.7,110.4c0,0,0.6,4.3,2.3-3.7c0,0,4.6-92.9,15.4-95.2L143.7,229.8z"/>
</g>
<g>
	<path class="st1" d="M170,123.1c0,0-31.5,3.7-39.7,37.7c-1.9,8-3.8,16-5.8,24c-2.1,8.7-3.2,16.8-6.5,25.1   c-2.6,6.4-5.4,12.7-8.5,18.9c-8.2,16.5-17.9,32.5-30.2,46.3c-7.6,8.6-15.9,16.5-25.4,23.1c0,0,6.3,17.7,59.8-29.2"/>
</g>
<g>
	<path class="st1" d="M123.4,262.7c0,0-26,30.6-45.5,34.9c0,0-3.4,2.9,1.1,2.9s30-0.9,45.2-28.9   C139.4,243.5,123.4,262.7,123.4,262.7z"/>
</g>
<g>
	<path class="st1" d="M144,236.4c-3.2,0.1-4.7,9.1-5.2,11.1c-4.3,16.4-6.5,33.5-8.8,50.3c-1.2,8.5-2.2,17-3.3,25.5   c-0.4,3.4-0.6,6.8-0.8,10.1c-0.1,2.8-0.9,5-4.3,3.5c-4-1.8-4.3-8.5-5.1-12.1c-5.2-24-3.4-48-1.2-72.2c4-45.5,23.4-72.9,23.4-72.9   l23.4-22.3l3.7-1.4l-1.4,77.2L144,236.4z"/>
</g>
<g>
	<path class="st1" d="M168.9,132.6c0,0,12,5.7,9.7,41.2c0,0-6,26.9-5.4,36.3c0,0-11.4,78.3,11.4,121.5c0,0,15.7,25.4,20.3,28   c0,0,1.4,2.9-3.7,1.4c-3.1-2.6-6-5.5-8.7-8.4c-5.4-5.7-9-12.7-13-19.4c0,0,9.7,25.7,13.4,29.7c0,0,5.4,8-2.9,4.9   c0,0-16.3-3.7-31.2-34.3c0,0-29.7-82.6-6.3-145.5l4.3-55.5H168.9z"/>
</g>
<g>
	<path class="st1" d="M173.5,195.5l-7.1,0.6c0,0-5.7,16.9-6,46.3c-0.3,29.4,2.9,94.6,29.8,121.8c0,0,2.5,5.2-1.8,2.9   c-4.3-2.3-41.2-11.4-44.6-116.9c0,0-5.1-41.6,11.4-70.4l-5.1-44l20.9-4.6c0,0,7.4,5.4,7.7,28.6   C178.6,159.7,178.6,184.9,173.5,195.5z"/>
</g>
<g>
	<path d="M198.3,217"/>
</g>
<g>
	<path d="M318.9,261.4"/>
</g>
<g>
	<path class="st1" d="M318.5,263.9c0,0,34.3-24.3,0.9-70.2c0,0,16.3,47.5-0.9,66.6V263.9z"/>
</g>
<g>
	<path class="st1" d="M372,257.3c0,0-3.4-43.1-15-44c0,0,3.2,9.9,2.4,9l4.3,18l5.6,13.7C369.2,254.1,371.3,256.5,372,257.3z"/>
</g>
<g>
	<path d="M337.4,254.7"/>
</g>
<g>
	<path class="st1" d="M327.6,291.2c0,0,36.2-27.9,13.9-64.5c0,0,2.7,13.4-8.5,50.9c0,0,0.2,2.1-3.3,8.5   C329.7,286.1,327.2,290.8,327.6,291.2z"/>
</g>
<g>
	<path d="M152.8,187.7"/>
</g>
<g>
	<path class="st7" d="M198.5,149.6c-1.3,0-2-0.7-2.3-1l0,0c-4.1-3-6.9-3.5-8.2-3.5l0,0c-0.5,0-0.8,0.1-0.9,0.1l0,0c0,0,0,0,0,0l0,0   l0,0l0,0c-2.4,0.6-4.5,2-6.3,3.8l0,0c-1.4,1.4-2.6,3.2-3.5,4.9l0,0c-0.9,1.6-2,5.4-2,8.4l0,0c0,1.4,0.2,2.6,0.7,3.5l0,0   c0.5,0.9,1.2,1.4,2.5,1.6l0,0c1.8,0.2,3.9,0.5,5.8,1.1l0,0c1.9,0.7,3.7,1.8,4.7,3.8l0,0c1.1,2.1,1.5,4.4,1.5,6.7l0,0   c0,3.9-1.2,7.8-2.8,11.1l0,0c-0.8,1.7-2.1,4.4-3.8,6.8l0,0c-1.7,2.3-3.8,4.4-6.5,4.4l0,0c-0.3,0-0.5,0-0.8-0.1l0,0   c-5.9-1-11.3-4.1-16.9-5.3l0,0c-1.1-0.3-2.7-1.1-4.2-1.1l0,0c-0.9,0-1.7,0.3-2.3,1.4l0,0c-0.2,0.4-0.3,0.7-0.3,1.1l0,0   c0,0.8,0.5,1.6,1.2,2.4l0,0c0.7,0.8,1.5,1.6,2.2,2.4l0,0c1.1,1.4,1.9,3,1.9,4.7l0,0c0,0.9-0.2,1.9-0.7,2.8l0,0   c-0.7,1.4-2.2,3-3.8,3.6l0,0c-1.2,0.4-2.4,0.5-3.6,0.5l0,0c-0.6,0-1.3,0-1.9-0.1l0,0c-3.8-0.4-7.6-1.5-11.1-2.8l0,0   c-3.1-1.2-7.4-2.4-9.4-5.7l0,0c-0.8-1.3-1.1-2.7-1.1-4.1l0,0c0-2,0.7-4.1,1.7-5.8l0,0c0.4-0.6,0.9-1.5,1.5-2.3l0,0   c0.3-0.4,0.6-0.8,1-1.1l0,0c-4.3-1.3-8.8-2.5-13.2-3.4l0,0c-1.9-0.4-3.1-1-3.7-1.9l0,0c-0.6-0.9-0.7-2-0.7-3l0,0c0-0.2,0-0.4,0-0.7   l0,0c0-0.6,0.3-1.8,0.7-3.5l0,0c0.4-1.7,1.1-3.9,1.7-6.3l0,0c1.4-4.7,3-10.2,4.1-14.1l0,0c0.7-2.5,1.2-4.4,1.3-4.8l0,0c0,0,0,0,0,0   l0,0c0,0-0.1,0-0.2,0l0,0c-0.5,0-1.5,0.3-2.3,0.6l0,0c-0.8,0.3-1.4,0.6-1.4,0.6l0,0l-0.1,0l-0.1,0c-1,0.1-2.2,0.3-3.5,0.3l0,0   c-1.7,0-3.4-0.3-4.6-1.7l0,0c-1.2-1.4-1.4-3.2-1.4-4.8l0,0c0-0.8,0-1.6,0-2.2l0,0c0.1-6.4,1.7-14.8,7.2-19.2l0,0   c1.8-1.4,4-2.4,6.3-2.4l0,0c0.9,0,1.8,0.1,2.6,0.5l0,0c2.3,0.9,4,2.5,5.6,3.9l0,0c0.9,0.8,1.5,1.1,1.8,1.2l0,0c0,0,0,0,0-0.1l0,0   c0-0.1,0-0.2,0-0.2l0,0c0-0.1,0-0.1,0-0.1l0,0l0-0.1l0-0.1c0.5-4,1.3-8,2.5-11.8l0,0c1.4-4.5,3.2-8.7,5.7-12.7l0,0   c3.1-4.9,8.2-7.2,13.7-7.9l0,0c1.2-0.2,2.3-0.2,3.4-0.2l0,0c1.6,0,3.1,0.2,4.8,0.7l0,0c1.8,0.5,3.2,1.6,3.6,3.1l0,0l-0.6,0.1   l0.6-0.1c0,0.2,0.1,0.4,0.1,0.6l0,0c0,1-0.5,2-1.5,3l0,0c-1.2,1.1-1.8,2.5-2.4,4.2l0,0c-0.3,0.7-0.4,1.4-0.4,2l0,0c0,1.8,1,3,3.3,4   l0,0c2.8,1.1,5.9,1.8,8.9,2.3l0,0c1.8,0.3,3.9,0.8,5.7,0.8l0,0c0.9,0,1.7-0.1,2.4-0.3l0,0c2.5-0.8,3.4-2.7,3.5-5.2l0,0   c0,0,0-0.1,0-0.1l0,0c0-0.7-0.1-1.5-0.1-2.4l0,0c0-1,0.1-2.1,0.5-3.1l0,0c0.4-1,1.2-1.8,2.4-2.3l0,0c0.6-0.2,1.2-0.3,1.8-0.3l0,0   c1.7,0,3.4,0.7,4.8,1.1l0,0c7.2,1.9,14.3,4.6,20.5,8.8l0,0c2.3,1.5,3.6,3.4,3.6,5.8l0,0c0,0.7-0.1,1.5-0.3,2.3l0,0   c-1.6,6.4-4.1,13.3-8.5,18.5l0,0c-1.6,1.9-3.5,3.5-5.1,5.3l0,0"/>
</g>
<g>
	<path class="st1" d="M79.5,301c-0.2,0-0.3,0-0.4,0l0,0c-0.1,0-0.2,0-0.3,0l0,0c-0.9,0-1.5-0.1-2-0.3l0,0c-0.5-0.2-0.8-0.8-0.8-1.2   l0,0c0-0.8,0.5-1.3,0.8-1.7l0,0c0.4-0.4,0.7-0.7,0.7-0.7l0,0l0.2-0.1l0.2,0c4.7-0.3,11-3.9,16.9-8.1l0,0   c5.9-4.3,11.4-9.3,14.9-12.7l0,0c2.3-2.2,3.7-3.7,3.7-3.7l0,0v0l0.9,0.9c0,0-5.7,5.9-13.1,12l0,0c-7.3,6-16.2,12.2-23.1,12.9l0,0   c0,0,0,0,0,0l0,0c-0.1,0.1-0.3,0.3-0.4,0.4l0,0c-0.3,0.3-0.5,0.8-0.5,0.8l0,0c0,0,0,0,0,0l0,0c0,0,0,0,0.1,0.1l0,0   c0.2,0.1,0.7,0.2,1.4,0.2l0,0c0.1,0,0.2,0,0.3,0l0,0h0l0,0c0,0,0.1,0,0.3,0l0,0c2.5,0,18.2-0.6,33.7-14.8l0,0l0.9,0.9   C98.3,300.4,82.2,301,79.5,301L79.5,301C79.5,301,79.5,301,79.5,301L79.5,301z"/>
</g>
<g>
	<path d="M177.9,149.2L177.9,149.2L177.9,149.2L177.9,149.2L177.9,149.2L177.9,149.2z"/>
</g>
<g>
	<path d="M364.8,180.1"/>
</g>
<g>
	<path class="st2" d="M341.1,313.5"/>
</g>
<g>
	<path class="st7" d="M361,199c0.4-1.3,1.2-1.8,1.5-1.9l0,0c4-3.1,5.2-5.7,5.6-7l0,0c0.1-0.5,0.2-0.7,0.2-0.8l0,0c0,0,0,0,0,0l0,0   l0,0l0,0c0.1-2.5-0.7-4.9-1.9-7.1l0,0c-1-1.7-2.3-3.4-3.8-4.7l0,0c-1.3-1.3-4.6-3.4-7.6-4.2l0,0c-1.3-0.4-2.6-0.5-3.6-0.2l0,0   c-1,0.3-1.7,0.8-2.2,1.9l0,0c-0.7,1.7-1.5,3.6-2.6,5.2l0,0c-1.2,1.6-2.7,3-4.9,3.5l0,0c-2.3,0.5-4.7,0.3-6.9-0.4l0,0   c-3.7-1.1-7.2-3.3-9.9-5.7l0,0c-1.4-1.2-3.7-3.2-5.5-5.5l0,0c-1.8-2.3-3.2-4.9-2.5-7.5l0,0c0.1-0.3,0.2-0.5,0.3-0.8l0,0   c2.6-5.4,7-9.8,9.7-14.8l0,0c0.5-1,1.8-2.3,2.2-3.7l0,0c0.2-0.9,0.2-1.7-0.7-2.6l0,0c-0.3-0.3-0.6-0.5-1-0.6l0,0   c-0.7-0.2-1.7,0-2.7,0.4l0,0c-1,0.4-2,1-2.9,1.4l0,0c-1.7,0.7-3.4,1-5,0.6l0,0c-0.9-0.2-1.7-0.7-2.5-1.4l0,0   c-1.2-1.1-2.3-2.9-2.4-4.6l0,0c-0.1-1.2,0.1-2.4,0.4-3.6l0,0c0.2-0.6,0.4-1.2,0.6-1.8l0,0c1.4-3.6,3.5-6.9,5.7-9.9l0,0   c2-2.6,4.3-6.5,8.1-7.5l0,0c1.4-0.4,2.9-0.3,4.3,0.1l0,0c2,0.6,3.7,1.8,5.1,3.2l0,0c0.5,0.5,1.2,1.2,1.8,2.1l0,0   c0.3,0.4,0.6,0.8,0.8,1.3l0,0c2.4-3.8,4.7-7.8,6.8-11.8l0,0c0.9-1.7,1.8-2.7,2.9-3l0,0c1.1-0.4,2.1-0.1,3,0.2l0,0   c0.2,0.1,0.4,0.1,0.6,0.2l0,0c0.6,0.2,1.6,0.8,3.2,1.7l0,0c1.5,0.9,3.5,2.1,5.6,3.4l0,0c4.2,2.6,9,5.7,12.4,7.8l0,0   c2.2,1.4,3.9,2.4,4.2,2.5l0,0c0,0,0,0,0,0l0,0c0,0,0.1-0.1,0.1-0.2l0,0c0.2-0.5,0.2-1.5,0.1-2.4l0,0c-0.1-0.9-0.2-1.5-0.2-1.5l0,0   l0-0.1l0-0.1c0.1-1,0.3-2.2,0.6-3.4l0,0c0.5-1.6,1.2-3.2,2.8-4l0,0c1.7-0.8,3.5-0.5,5,0l0,0c0.8,0.2,1.5,0.5,2.2,0.7l0,0   c6.1,1.8,13.8,5.6,16.5,12.1l0,0c0.8,2.1,1.2,4.5,0.6,6.8l0,0c-0.2,0.8-0.6,1.7-1.2,2.4l0,0c-1.5,1.9-3.5,3.1-5.3,4.3l0,0   c-1,0.6-1.5,1.2-1.6,1.4l0,0c0,0,0,0,0.1,0l0,0c0.1,0,0.2,0,0.2,0l0,0c0.1,0,0.1,0,0.1,0l0,0l0.1,0l0.1,0c3.7,1.6,7.3,3.4,10.7,5.6   l0,0c4,2.5,7.5,5.4,10.7,8.9l0,0c3.9,4.3,4.7,9.9,3.9,15.3l0,0c-0.2,1.2-0.4,2.3-0.7,3.3l0,0c-0.4,1.5-1,3-1.9,4.4l0,0   c-1,1.6-2.4,2.7-4,2.6l0,0l0-0.6l0,0.6c-0.2,0-0.4,0-0.6-0.1l0,0c-1-0.3-1.8-1.1-2.5-2.3l0,0c-0.8-1.5-2-2.5-3.4-3.5l0,0   c-0.6-0.4-1.2-0.7-1.8-0.9l0,0c-1.7-0.5-3.2,0.2-4.7,2.1l0,0c-1.8,2.4-3.3,5.2-4.7,7.9l0,0c-0.8,1.6-1.8,3.5-2.3,5.3l0,0   c-0.2,0.8-0.4,1.6-0.3,2.4l0,0c0.1,2.6,1.6,4,4.1,4.8l0,0c0,0,0.1,0,0.1,0l0,0c0.7,0.2,1.5,0.4,2.3,0.6l0,0c1,0.3,2,0.6,2.8,1.3   l0,0c0.8,0.6,1.5,1.6,1.6,2.9l0,0c0.1,0.7,0,1.3-0.2,1.9l0,0c-0.5,1.7-1.6,3.1-2.3,4.3l0,0c-3.8,6.4-8.3,12.5-14.1,17.4l0,0   c-2.1,1.8-4.2,2.5-6.6,1.9l0,0c-0.7-0.2-1.4-0.5-2.1-0.9l0,0c-5.7-3.3-11.7-7.6-15.5-13.2l0,0c-1.4-2.1-2.4-4.4-3.7-6.4l0,0"/>
</g>
</svg>